# xmcd
#
# Track frame offsets: 
#        150
#        13574
#        27574
#        43885
#        61174
#        74388
#        87304
#        100442
#        114022
#        130115
#        145961
#        159395
#        173961
#        191499
#        203264
#        218233
#        233113
#        246502
#        260708
#        272238
#        286871
#        300972
#        314602
#        328796
#        342308
#
# Disc length: 4770 seconds
#
# Revision: 2
# Processed by: cddbd v1.5.2PL0 Copyright (c) Steve Scherf et al.
# Submitted via: ExactAudioCopy v1.0b3
#
DISCID=7212a019
DTITLE=Various Artist - NOW That's What I Call Music! 102 [CD1]
DYEAR=2019
DGENRE=Contemporary Pop
TTITLE0=Ariana Grande - 7 rings
TTITLE1=Ava Max - Sweet but Psycho
TTITLE2=Mark Ronson feat. Miley Cyrus - Nothing Breaks Like a Heart
TTITLE3=Calvin Harris and Rag 'n' bone Man - Giant
TTITLE4=P!nk - Walk Me Home
TTITLE5=Sam Smith and Normani - Dancing With a Stranger
TTITLE6=Tom Walker - Just You and I
TTITLE7=Jonas Brothers - Sucker
TTITLE8=George Ezra - Pretty Shining People
TTITLE9=James Arthur - Empty Space
TTITLE10=Lewis Capaldi - Grace
TTITLE11=Jason Derulo x David Guetta feat. Nicki Minaj and Willy William
TTITLE11=Goodbye
TTITLE12=Little Mix feat. Ty Dolla $ign - Think About Us
TTITLE13=Marshmello feat. CHVRCHES - Here With Me
TTITLE14=Cardi B and Bruno Mars - Please Me
TTITLE15=Khalid - Talk
TTITLE16=Mabel - Don't Call Me Up
TTITLE17=Charli XCX and Troye Sivan - 1999
TTITLE18=Sigrid - Don't Feel Like Crying
TTITLE19=CamelPhat x Cristoph feat. Jem Cooke - Breathe
TTITLE20=Jax Jones and Years and Years - Play
TTITLE21=Zedd and Katy Perry - 365
TTITLE22=Zara Larsson - Ruin My Life
TTITLE23=Dua Lipa - Swan Song (From"Alita: Battle Angel")
TTITLE24=Ariana Grande - thank u, next
EXTD=
EXTT0=
EXTT1=
EXTT2=
EXTT3=
EXTT4=
EXTT5=
EXTT6=
EXTT7=
EXTT8=
EXTT9=
EXTT10=
EXTT11=
EXTT12=
EXTT13=
EXTT14=
EXTT15=
EXTT16=
EXTT17=
EXTT18=
EXTT19=
EXTT20=
EXTT21=
EXTT22=
EXTT23=
EXTT24=
PLAYORDER=
